<svg width="81.002" height="44.75" viewBox="0 0 81.002 44.75" xmlns="http://www.w3.org/2000/svg"><g id="svgGroup" stroke-linecap="round" fill-rule="evenodd" font-size="9pt" stroke="#000" stroke-width="0.25mm" fill="black" style="stroke:#000;stroke-width:0.25mm;fill:black"><path d="M 16.85 33.95 L 27.3 29.95 Q 28.3 28.2 28.775 26.375 Q 29.25 24.55 29.25 22.75 Q 29.25 18.3 27.075 14.75 Q 24.9 11.2 21.3 8.725 Q 17.7 6.25 13.4 5.15 Q 11.6 8.4 10.175 12.35 Q 8.75 16.3 7.75 20.45 Q 6.75 24.6 6.2 28.5 Q 5.65 32.4 5.65 35.6 Q 5.65 37.15 5.75 38.225 Q 5.85 39.3 6 40.3 Q 6 40.35 5.95 40.35 Q 5.35 40.35 4.975 39.475 Q 4.6 38.6 4.425 37.325 Q 4.25 36.05 4.25 34.85 Q 4.25 31.1 4.925 26.85 Q 5.6 22.6 6.675 18.4 Q 7.75 14.2 8.9 10.6 Q 10.05 7 10.95 4.6 Q 9.95 4.45 8.925 4.35 Q 7.9 4.25 6.9 4.25 Q 4.75 4.25 2.975 4.525 Q 1.2 4.8 0.35 5.05 Q 0 5 0 4.75 Q 0 4.3 1.525 3.6 Q 3.05 2.9 5.05 2.4 Q 7.7 1.7 10.35 1.7 Q 10.8 1.7 11.25 1.725 Q 11.7 1.75 12.15 1.8 Q 12.25 1.6 12.325 1.475 Q 12.4 1.35 12.45 1.25 Q 12.9 0.45 13.35 0.45 Q 13.65 0.45 13.8 0.9 Q 13.95 1.35 14 2 Q 17.75 2.6 21.2 4.35 Q 24.65 6.1 27.35 8.7 Q 30.05 11.3 31.625 14.55 Q 33.2 17.8 33.2 21.4 Q 33.2 23.1 32.825 24.85 Q 32.45 26.6 31.6 28.35 Q 33.4 27.8 34 27.475 Q 34.6 27.15 34.95 27.15 Q 35.1 27.15 35.1 27.25 Q 35.1 27.35 34.65 27.7 Q 34.2 28.05 33.6 28.425 Q 33 28.8 32.55 29 L 30.9 29.7 Q 30 31.25 28.8 32.85 Q 27.6 34.45 26 35.95 Q 24.05 37.8 21.625 39.375 Q 19.2 40.95 16.675 42.1 Q 14.15 43.25 11.875 43.95 Q 9.6 44.65 7.95 44.75 Q 7.45 44.7 6.9 44.125 Q 6.35 43.55 6 42.85 Q 5.65 42.15 5.65 41.85 Q 5.65 40.45 8.575 38.225 Q 11.5 36 16.85 33.95 Z M 47.95 43.9 Q 41.9 43.9 38.775 41.075 Q 35.65 38.25 35.65 33.2 Q 35.65 29.8 36.975 26.125 Q 38.3 22.45 40.725 18.95 Q 43.15 15.45 46.525 12.525 Q 49.9 9.6 54.05 7.65 Q 58.2 5.7 62.9 5.15 Q 63.2 5.1 63.55 5.1 L 64.25 5.1 Q 65.4 5.1 66.525 5.25 Q 67.65 5.4 68.2 5.65 Q 68.45 5.35 68.85 4.45 Q 69.25 3.55 69.675 2.525 Q 70.1 1.5 70.375 0.75 L 70.65 0 A 0.861 0.861 0 0 1 71.225 0.4 Q 71.55 0.8 71.55 1.5 Q 71.55 1.6 71.175 2.55 Q 70.8 3.5 70.275 4.575 Q 69.75 5.65 69.25 6.05 Q 69.65 6.25 69.65 6.65 Q 69.65 7.35 68.65 8.5 Q 67.65 9.65 66.3 10.85 Q 64.95 12.05 63.725 12.975 Q 62.5 13.9 62.05 14.2 Q 60.95 14.95 60.65 14.95 Q 60.55 14.95 60.55 14.85 L 61.05 14.175 Q 61.55 13.5 62.35 12.475 Q 63.15 11.45 64.025 10.375 Q 64.9 9.3 65.65 8.45 Q 65.25 8.25 64.4 8.25 Q 61.3 8.25 58.075 9.35 Q 54.85 10.45 51.775 12.375 Q 48.7 14.3 46 16.8 Q 43.3 19.3 41.25 22.125 Q 39.2 24.95 38.05 27.85 Q 36.9 30.75 36.9 33.45 Q 36.9 37.25 39.575 38.8 Q 42.25 40.35 46.75 40.35 Q 50.05 40.35 53.9 39.65 Q 57.75 38.95 61.7 37.8 Q 65.65 36.65 69.275 35.275 Q 72.9 33.9 75.775 32.475 Q 78.65 31.05 80.3 29.85 Q 80.55 29.6 80.8 29.6 Q 81 29.6 81 29.8 Q 81 30 80.8 30.2 Q 78.5 32.45 75.475 34.575 Q 72.45 36.7 68.375 38.6 Q 64.3 40.5 58.7 42.1 Q 52.55 43.9 47.95 43.9 Z M 7.6 41.9 Q 10.15 41.2 12.125 40.575 Q 14.1 39.95 15.775 39.2 Q 17.45 38.45 19.1 37.425 Q 20.75 36.4 22.7 34.95 Q 24.75 33.45 26.15 31.65 Q 24 32.5 21.725 33.425 Q 19.45 34.35 17.1 35.25 Q 15.8 35.75 14.175 36.675 Q 12.55 37.6 11.05 38.65 Q 9.55 39.7 8.575 40.575 Q 7.6 41.45 7.6 41.9 Z" vector-effect="non-scaling-stroke"/></g></svg>