<svg xmlns="http://www.w3.org/2000/svg" xmlns:xlink="http://www.w3.org/1999/xlink" width="100%" height="100%" viewBox="0 0  1240 750" preserveAspectRatio="xMinYMin meet" ><rect id="svgEditorBackground" x="0" y="0" width="1240" height="750" style="fill: none; stroke: none;"/><path d="M563.23382,265.53764l-1.332,0l-1.864,0.2l-2.226,0.799l-2.235,0.999l-2.239,0.999l-2.011,0.922l-0.933,0.505l-1.926,0.927l-1.926,1.07l-1.855,1.213l-1.712,1.284l-1.641,1.355l-1.498,1.427l-1.355,1.498l-1.284,1.569l-1.07,1.641l-0.927,1.783l-0.785,1.926l-0.713,2.14l-0.571,2.211l-0.499,2.425l-0.357,2.425l-0.214,2.568l-0.143,2.711l-0.143,2.782l0,2.925l0.143,3.139l0.214,3.139l0.428,3.353l0.499,3.495l0.571,3.495l0.642,3.709l0.642,3.709l0.713,3.781l0.713,3.709l0.713,3.923l0.642,3.852l0.642,3.852l0.571,3.995l0.428,3.995l0.214,3.923l0.1,3.995l-0.214,3.852l-0.357,3.852l-0.499,3.852l-0.713,3.638l-0.856,3.709l-1.07,3.709l-1.213,3.638l-1.355,3.567l-1.427,3.567l-1.641,3.495l-1.712,3.353l-1.783,3.281l-1.783,3.139l-1.855,3.067l-1.926,2.925l-1.997,2.782l-2.14,2.711l-2.14,2.639l-2.211,2.425l-2.283,2.283l-2.283,2.14l-2.425,1.997l-2.568,1.783l-2.568,1.641l-2.711,1.569l-2.853,1.355l-2.925,1.213l-3.067,0.999l-3.21,0.927l-3.281,0.713l-3.424,0.428l-3.495,0.214l-3.567,0.1l-3.638,-0.143l-3.567,-0.214l-3.495,-0.499l-3.353,-0.571l-3.21,-0.713l-2.996,-0.927l-2.782,-0.999l-2.568,-1.141l-2.283,-1.284l-1.926,-1.427l-1.712,-1.498l-1.355,-1.498l-1.07,-1.569l-0.713,-1.569l-0.357,-1.641l-0.214,-1.641l0.1,-1.569l0.214,-1.498l0.357,-1.498l0.571,-1.427l0.785,-1.355l0.927,-1.284l1.141,-1.141l1.284,-0.999l1.498,-0.856l1.712,-0.713l1.855,-0.571l1.997,-0.499l2.283,-0.285l2.425,-0.143l2.639,-0.1l2.925,0l3.139,0.143l3.353,0.214l3.495,0.285l3.709,0.357l3.852,0.428l4.066,0.499l4.137,0.571l4.137,0.571l4.28,0.642l4.209,0.642l4.137,0.642l4.209,0.571l4.066,0.571l3.995,0.499l3.995,0.428l3.852,0.428l3.852,0.357l3.709,0.357l3.709,0.285l3.709,0.214l3.852,0.1l3.995,0l4.066,-0.143l4.28,-0.214l4.494,-0.357l4.565,-0.428l4.922,-0.571l5.065,-0.713l5.136,-0.713l5.35,-0.856l5.421,-0.999l5.635,-1.213l5.564,-1.355l5.564,-1.498l5.421,-1.641l5.421,-1.855l5.279,-1.997l5.207,-2.211l4.993,-2.497l4.851,-2.782l4.565,-2.996l4.351,-3.21l4.137,-3.567l3.923,-3.852l3.709,-4.066l3.353,-4.137l3.21,-4.423l2.925,-4.565l2.639,-4.779l2.283,-4.708l1.997,-4.851l1.712,-4.922l1.427,-4.922l1.141,-4.922l0.927,-4.993l0.642,-4.851l0.428,-4.922l0.1,-4.779l-0.143,-4.779l-0.357,-4.708l-0.571,-4.637l-0.713,-4.637l-0.856,-4.494l-0.999,-4.565l-1.213,-4.423l-1.355,-4.28l-1.498,-4.209l-1.712,-3.995l-1.855,-3.709l-2.069,-3.709l-2.211,-3.424l-2.354,-3.281l-2.568,-2.996l-2.782,-2.925l-2.996,-2.711l-3.353,-2.497l-3.495,-2.354l-3.781,-2.14l-3.923,-1.997l-4.209,-1.855l-4.423,-1.569l-4.565,-1.498l-4.851,-1.427l-4.993,-1.213l-5.207,-1.141l-5.35,-0.999l-5.493,-0.927l-5.564,-0.785l-5.635,-0.642l-5.635,-0.571l-5.707,-0.428l-5.707,-0.357l-5.635,-0.285l-5.635,-0.214l-5.564,-0.143l-5.564,0l-5.421,0.143l-5.421,0.214l-5.279,0.357l-5.207,0.499l-5.065,0.642l-4.993,0.785l-4.922,0.927l-4.779,0.999l-4.851,1.141l-4.637,1.355l-4.708,1.569l-4.494,1.641l-4.494,1.783l-4.28,1.926l-4.137,2.069l-3.923,2.14l-3.709,2.211l-3.567,2.283l-3.353,2.283l-3.139,2.283l-2.853,2.283l-2.639,2.425l-2.211,2.425l-2.069,2.354l-1.712,2.211l-1.498,2.283l-1.213,2.14l-0.999,2.069l-0.785,1.926l-0.499,1.926l-0.428,1.855l-0.143,1.641l0.1,1.641l0.285,1.569l0.428,1.569l0.642,1.427l0.785,1.355l0.927,1.284l1.07,1.355l1.213,1.213l1.427,1.213l1.569,1.141l1.569,1.07l1.641,0.999l1.855,0.999l1.926,0.999l1.926,0.927l1.997,0.856l2.354,0.713l2.497,0.642l2.425,0.571l2.568,0.499l2.497,0.357l2.497,0.357l2.354,0.214l2.354,0.143l2.568,0.1l2.497,-0.1l2.354,-0.143l2.283,-0.143l2.211,-0.285l2.14,-0.285l1.712,-0.285l1.427,-0.357l1.498,-0.357l1.355,-0.357l1.355,-0.357l1.284,-0.357l1.284,-0.285l1.141,-0.357l0.927,-0.285l0.927,-0.214l0.927,-0.214l0.856,-0.285l0.856,-0.214l0.856,-0.214l0.856,-0.214l0.927,-0.143l0.785,-0.214l0.785,-0.214l0.761,-0.238l0.766,-0.233l0.774,-0.225l0.791,-0.208l0.832,-0.166l0.499,-0.499" style="stroke:black;fill:none;stroke-width:3px;" id="e37_freepath" transform="matrix(3.38687 -0.0458034 0.0458234 3.38247 -1268.27 -745.543)"/></svg>