<svg width="56.701" height="31.325" viewBox="0 0 56.701 31.325" xmlns="http://www.w3.org/2000/svg"><g id="svgGroup" stroke-linecap="round" fill-rule="evenodd" font-size="9pt" stroke="#000" stroke-width="0.25mm" fill="black" style="stroke:#000;stroke-width:0.25mm;fill:black"><path d="M 11.795 23.765 L 19.11 20.965 Q 19.81 19.74 20.143 18.463 Q 20.475 17.185 20.475 15.925 Q 20.475 12.81 18.953 10.325 Q 17.43 7.84 14.91 6.108 Q 12.39 4.375 9.38 3.605 Q 8.12 5.88 7.123 8.645 Q 6.125 11.41 5.425 14.315 Q 4.725 17.22 4.34 19.95 Q 3.955 22.68 3.955 24.92 Q 3.955 26.005 4.025 26.758 Q 4.095 27.51 4.2 28.21 Q 4.2 28.245 4.165 28.245 Q 3.745 28.245 3.483 27.633 Q 3.22 27.02 3.098 26.128 Q 2.975 25.235 2.975 24.395 Q 2.975 21.77 3.448 18.795 Q 3.92 15.82 4.673 12.88 Q 5.425 9.94 6.23 7.42 Q 7.035 4.9 7.665 3.22 Q 6.965 3.115 6.248 3.045 Q 5.53 2.975 4.83 2.975 Q 3.325 2.975 2.083 3.168 Q 0.84 3.36 0.245 3.535 Q 0 3.5 0 3.325 Q 0 3.01 1.068 2.52 Q 2.135 2.03 3.535 1.68 Q 5.39 1.19 7.245 1.19 Q 7.56 1.19 7.875 1.208 Q 8.19 1.225 8.505 1.26 Q 8.575 1.12 8.628 1.033 Q 8.68 0.945 8.715 0.875 Q 9.03 0.315 9.345 0.315 Q 9.555 0.315 9.66 0.63 Q 9.765 0.945 9.8 1.4 Q 12.425 1.82 14.84 3.045 Q 17.255 4.27 19.145 6.09 Q 21.035 7.91 22.138 10.185 Q 23.24 12.46 23.24 14.98 Q 23.24 16.17 22.978 17.395 Q 22.715 18.62 22.12 19.845 Q 23.38 19.46 23.8 19.233 Q 24.22 19.005 24.465 19.005 Q 24.57 19.005 24.57 19.075 Q 24.57 19.145 24.255 19.39 Q 23.94 19.635 23.52 19.898 Q 23.1 20.16 22.785 20.3 L 21.63 20.79 Q 21 21.875 20.16 22.995 Q 19.32 24.115 18.2 25.165 Q 16.835 26.46 15.138 27.563 Q 13.44 28.665 11.673 29.47 Q 9.905 30.275 8.313 30.765 Q 6.72 31.255 5.565 31.325 Q 5.215 31.29 4.83 30.888 Q 4.445 30.485 4.2 29.995 Q 3.955 29.505 3.955 29.295 Q 3.955 28.315 6.003 26.758 Q 8.05 25.2 11.795 23.765 Z M 33.565 30.73 Q 29.33 30.73 27.143 28.753 Q 24.955 26.775 24.955 23.24 Q 24.955 20.86 25.883 18.288 Q 26.81 15.715 28.508 13.265 Q 30.205 10.815 32.568 8.768 Q 34.93 6.72 37.835 5.355 Q 40.74 3.99 44.03 3.605 Q 44.24 3.57 44.485 3.57 L 44.975 3.57 Q 45.78 3.57 46.568 3.675 Q 47.355 3.78 47.74 3.955 Q 47.915 3.745 48.195 3.115 Q 48.475 2.485 48.773 1.768 Q 49.07 1.05 49.263 0.525 L 49.455 0 Q 49.63 0 49.858 0.28 Q 50.085 0.56 50.085 1.05 Q 50.085 1.12 49.823 1.785 Q 49.56 2.45 49.193 3.203 Q 48.825 3.955 48.475 4.235 Q 48.755 4.375 48.755 4.655 Q 48.755 5.145 48.055 5.95 Q 47.355 6.755 46.41 7.595 Q 45.465 8.435 44.608 9.083 Q 43.75 9.73 43.435 9.94 Q 42.665 10.465 42.455 10.465 Q 42.385 10.465 42.385 10.395 L 42.735 9.923 Q 43.085 9.45 43.645 8.733 Q 44.205 8.015 44.818 7.263 Q 45.43 6.51 45.955 5.915 Q 45.675 5.775 45.08 5.775 Q 42.91 5.775 40.653 6.545 Q 38.395 7.315 36.243 8.663 Q 34.09 10.01 32.2 11.76 Q 30.31 13.51 28.875 15.488 Q 27.44 17.465 26.635 19.495 Q 25.83 21.525 25.83 23.415 Q 25.83 26.075 27.703 27.16 Q 29.575 28.245 32.725 28.245 Q 35.035 28.245 37.73 27.755 Q 40.425 27.265 43.19 26.46 Q 45.955 25.655 48.493 24.693 Q 51.03 23.73 53.043 22.733 Q 55.055 21.735 56.21 20.895 Q 56.385 20.72 56.56 20.72 Q 56.7 20.72 56.7 20.86 Q 56.7 21 56.56 21.14 Q 54.95 22.715 52.833 24.203 Q 50.715 25.69 47.863 27.02 Q 45.01 28.35 41.09 29.47 Q 36.785 30.73 33.565 30.73 Z M 5.32 29.33 Q 7.105 28.84 8.488 28.403 Q 9.87 27.965 11.043 27.44 Q 12.215 26.915 13.37 26.198 Q 14.525 25.48 15.89 24.465 Q 17.325 23.415 18.305 22.155 Q 16.8 22.75 15.208 23.398 Q 13.615 24.045 11.97 24.675 Q 11.06 25.025 9.923 25.673 Q 8.785 26.32 7.735 27.055 Q 6.685 27.79 6.003 28.403 Q 5.32 29.015 5.32 29.33 Z" vector-effect="non-scaling-stroke"/></g></svg>