<svg width="700.195" height="143.088" viewBox="0 0 700.195 143.088" xmlns="http://www.w3.org/2000/svg"><g id="svgGroup" stroke-linecap="round" fill-rule="evenodd" font-size="9pt" stroke="#000" stroke-width="0.25mm" fill="black" style="stroke:#000;stroke-width:0.25mm;fill:black"><path d="M 46.055 78.75 L 46.641 78.75 Q 51.797 78.75 57.07 76.816 Q 62.344 74.883 66.68 71.367 A 30.536 30.536 0 0 0 73.77 63.223 A 19.252 19.252 0 0 0 76.523 53.203 Q 76.523 48.984 74.883 44.941 A 36.067 36.067 0 0 0 70.488 37.148 Q 67.734 33.398 64.043 30.234 A 61.106 61.106 0 0 0 56.25 24.551 Q 52.148 22.031 47.93 20.273 A 39.454 39.454 0 0 0 39.844 17.813 A 95.331 95.331 0 0 0 41.074 31.992 A 940.337 940.337 0 0 0 43.301 44.824 A 152.973 152.973 0 0 1 45 56.836 A 49.136 49.136 0 0 1 45.352 62.695 A 49.136 49.136 0 0 1 45 68.555 L 45 70.02 A 4.217 4.217 0 0 1 44.707 71.543 Q 44.414 72.305 43.77 72.773 A 2.617 2.617 0 0 1 42.188 73.242 A 2.521 2.521 0 0 1 41.018 73.583 A 1.749 1.749 0 0 1 39.492 72.539 A 14.478 14.478 0 0 1 38.086 67.559 A 70.898 70.898 0 0 1 37.5 59.648 Q 37.383 55.078 37.09 50.098 A 254.99 254.99 0 0 0 36.328 40.313 A 55.457 55.457 0 0 0 34.805 31.523 A 447.789 447.789 0 0 1 34.219 27.891 Q 33.867 25.664 33.281 23.262 A 40.071 40.071 0 0 0 31.934 18.809 A 9.857 9.857 0 0 0 30.352 15.82 Q 21.914 15.82 16.875 16.348 A 67.096 67.096 0 0 0 8.848 17.578 Q 5.859 18.281 4.512 19.043 A 28.501 28.501 0 0 1 2.109 20.273 L 1.875 20.391 A 0.899 0.899 0 0 1 1.523 20.508 A 0.18 0.18 0 0 1 1.289 20.391 Q 1.172 20.273 1.055 20.273 A 1.272 1.272 0 0 1 0.82 19.805 L 0.527 18.926 A 38.604 38.604 0 0 1 0.176 17.813 A 3.412 3.412 0 0 1 0 16.992 L 0 16.523 Q 0 14.883 1.699 13.711 A 16.307 16.307 0 0 1 5.918 11.719 A 40.107 40.107 0 0 1 11.484 10.371 Q 14.531 9.844 17.168 9.609 A 587.036 587.036 0 0 0 21.621 9.199 A 71.643 71.643 0 0 1 23.555 9.023 Q 29.531 9.023 36.328 10.371 Q 43.125 11.719 49.746 14.297 A 73.921 73.921 0 0 1 62.402 20.684 A 54.409 54.409 0 0 1 73.066 29.414 A 40.062 40.062 0 0 1 80.449 40.43 Q 83.203 46.523 83.203 53.555 A 31.981 31.981 0 0 1 81.211 65.156 A 28.578 28.578 0 0 1 75.703 74.18 A 32.591 32.591 0 0 1 67.5 80.684 A 37.674 37.674 0 0 1 57.539 84.551 Q 52.266 85.781 46.699 85.781 A 45.484 45.484 0 0 1 35.859 84.492 A 36.265 36.265 0 0 1 33.281 83.496 A 30.18 30.18 0 0 1 30.293 82.031 Q 28.828 81.211 27.832 79.98 Q 26.836 78.75 26.836 77.227 A 6.839 6.839 0 0 1 27.129 75.293 A 1.353 1.353 0 0 1 28.594 74.297 A 17.101 17.101 0 0 1 31.582 74.941 A 251.169 251.169 0 0 1 36.797 76.406 A 199.822 199.822 0 0 0 42.305 77.93 A 31.565 31.565 0 0 0 46.055 78.75 Z M 640.326 115.604 A 5.341 5.341 0 0 0 640.547 117.07 A 14.459 14.459 0 0 0 642.773 124.863 A 25.24 25.24 0 0 0 648.633 131.309 A 44.853 44.853 0 0 0 656.836 136.406 Q 661.406 138.633 666.035 140.156 A 59.343 59.343 0 0 0 674.941 142.383 Q 679.219 143.086 682.266 143.086 Q 686.016 143.086 688.887 141.27 A 16.279 16.279 0 0 0 693.75 136.465 Q 695.742 133.477 696.973 129.668 Q 698.203 125.859 698.906 121.992 A 75.778 75.778 0 0 0 699.902 114.434 Q 700.195 110.742 700.195 108.047 A 149.649 149.649 0 0 1 699.316 94.512 Q 699.141 87.07 698.906 79.336 Q 698.672 71.602 698.027 64.16 Q 697.383 56.719 695.918 50.625 Q 694.453 44.531 691.816 40.371 A 11.73 11.73 0 0 0 684.961 35.039 A 20.385 20.385 0 0 0 674.59 37.852 Q 669.727 40.664 666.152 45.117 Q 662.578 49.57 660.527 54.961 A 29.547 29.547 0 0 0 658.477 65.508 A 14.937 14.937 0 0 0 659.883 71.836 Q 661.289 74.883 663.574 77.109 A 18.467 18.467 0 0 0 669.023 80.742 A 15.727 15.727 0 0 0 675.469 82.148 Q 677.109 82.148 678.867 81.445 A 54.545 54.545 0 0 0 682.324 79.922 A 114.874 114.874 0 0 1 685.605 78.398 A 6.97 6.97 0 0 1 688.359 77.695 A 2.266 2.266 0 0 1 689.707 79.57 Q 690.352 81.445 690.938 84.492 A 116.103 116.103 0 0 1 691.992 91.055 A 265.448 265.448 0 0 1 692.813 97.852 Q 693.164 101.133 693.34 103.652 A 59.619 59.619 0 0 1 693.516 107.109 A 126.635 126.635 0 0 1 693.398 112.031 A 55.242 55.242 0 0 1 692.813 118.066 A 50.433 50.433 0 0 1 691.465 124.277 Q 690.586 127.383 689.121 129.844 A 13.444 13.444 0 0 1 685.605 133.828 Q 683.555 135.352 680.625 135.352 A 22.793 22.793 0 0 1 676.406 134.766 A 69.32 69.32 0 0 1 669.492 133.008 A 98.083 98.083 0 0 1 661.523 130.195 A 59.031 59.031 0 0 1 653.965 126.563 Q 650.508 124.57 648.34 122.109 Q 646.172 119.648 646.172 117.07 A 10.046 10.046 0 0 0 646.961 113.673 A 3.796 3.796 0 0 0 646.934 113.203 Q 646.758 111.797 645.996 111.27 A 2.096 2.096 0 0 0 644.773 110.904 A 3.167 3.167 0 0 0 644.121 110.977 Q 643.008 111.211 642.07 112.031 A 5.528 5.528 0 0 0 640.605 114.141 A 3.827 3.827 0 0 0 640.326 115.604 Z M 289.336 50.156 L 289.219 49.102 A 12.736 12.736 0 0 0 287.461 42.891 A 22.442 22.442 0 0 0 282.949 37.207 A 25.936 25.936 0 0 0 277.031 33.105 A 13.612 13.612 0 0 0 270.938 31.523 A 5.499 5.499 0 0 0 268.887 31.875 A 10.019 10.019 0 0 0 267.188 32.754 Q 266.367 33.281 265.605 33.691 A 3.78 3.78 0 0 1 263.789 34.102 A 0.18 0.18 0 0 1 263.555 33.984 L 263.32 33.75 A 11.863 11.863 0 0 0 262.676 33.164 A 1.12 1.12 0 0 1 262.266 32.695 A 8.041 8.041 0 0 1 263.027 29.063 A 6.461 6.461 0 0 1 265.137 26.602 A 11.009 11.009 0 0 1 268.184 25.137 Q 269.883 24.609 271.758 24.609 A 22.773 22.773 0 0 1 280.723 27.48 A 35.096 35.096 0 0 1 288.574 33.516 Q 292.148 37.148 294.844 41.895 A 62.127 62.127 0 0 1 299.355 51.738 A 45.926 45.926 0 0 1 301.758 61.992 A 43.867 43.867 0 0 1 302.141 67.664 A 35.512 35.512 0 0 1 301.875 72.07 A 11.36 11.36 0 0 1 301.172 72.012 A 78.798 78.798 0 0 0 299.883 71.895 A 7.518 7.518 0 0 1 298.711 71.719 L 298.125 71.602 A 34.133 34.133 0 0 0 292.617 62.695 Q 289.57 59.297 286.582 57.363 A 21.832 21.832 0 0 0 281.016 54.668 A 59.693 59.693 0 0 0 276.797 53.555 Q 275.039 53.555 272.637 53.789 Q 270.234 54.023 267.656 54.609 A 39.582 39.582 0 0 0 262.441 56.191 A 21.998 21.998 0 0 0 257.754 58.594 Q 255.703 60 254.473 61.934 Q 253.242 63.867 253.242 66.445 A 6.049 6.049 0 0 0 255.469 71.191 A 18.184 18.184 0 0 0 260.859 74.355 A 29.08 29.08 0 0 0 267.305 76.055 A 39.149 39.149 0 0 0 272.578 76.523 A 58.328 58.328 0 0 0 279.023 76.172 A 161.485 161.485 0 0 0 285.293 75.352 A 177.677 177.677 0 0 1 291.445 74.531 A 53.12 53.12 0 0 1 297.539 74.18 L 298.359 74.18 Q 298.945 74.18 299.59 74.238 Q 300.234 74.297 300.762 74.297 L 301.523 74.297 A 1.432 1.432 0 0 1 302.578 75.352 A 8.54 8.54 0 0 1 302.695 76.758 A 2.275 2.275 0 0 1 301.23 78.281 A 24.539 24.539 0 0 1 297.422 79.922 Q 295.078 80.742 292.207 81.621 A 72.843 72.843 0 0 1 286.699 83.086 A 122.784 122.784 0 0 1 281.777 84.082 Q 279.492 84.492 278.555 84.492 A 70.931 70.931 0 0 1 268.125 83.672 A 35.622 35.622 0 0 1 258.047 80.684 Q 253.477 78.516 250.488 74.648 A 15.824 15.824 0 0 1 247.5 64.688 A 14.587 14.587 0 0 1 248.672 60.117 Q 249.727 57.539 251.953 55.078 A 22.509 22.509 0 0 1 257.578 50.684 Q 260.977 48.75 265.605 47.93 A 30.726 30.726 0 0 1 270.964 47.488 A 44.05 44.05 0 0 1 276.152 47.813 Q 282.07 48.516 289.336 51.328 L 289.336 50.156 Z M 584.414 50.156 L 584.297 49.102 A 12.736 12.736 0 0 0 582.539 42.891 A 22.442 22.442 0 0 0 578.027 37.207 A 25.936 25.936 0 0 0 572.109 33.105 A 13.612 13.612 0 0 0 566.016 31.523 A 5.499 5.499 0 0 0 563.965 31.875 A 10.019 10.019 0 0 0 562.266 32.754 Q 561.445 33.281 560.684 33.691 A 3.78 3.78 0 0 1 558.867 34.102 A 0.18 0.18 0 0 1 558.633 33.984 L 558.398 33.75 A 11.863 11.863 0 0 0 557.754 33.164 A 1.12 1.12 0 0 1 557.344 32.695 A 8.041 8.041 0 0 1 558.105 29.063 A 6.461 6.461 0 0 1 560.215 26.602 A 11.009 11.009 0 0 1 563.262 25.137 Q 564.961 24.609 566.836 24.609 A 22.773 22.773 0 0 1 575.801 27.48 A 35.096 35.096 0 0 1 583.652 33.516 Q 587.227 37.148 589.922 41.895 A 62.127 62.127 0 0 1 594.434 51.738 A 45.926 45.926 0 0 1 596.836 61.992 A 43.867 43.867 0 0 1 597.219 67.664 A 35.512 35.512 0 0 1 596.953 72.07 A 11.36 11.36 0 0 1 596.25 72.012 A 78.798 78.798 0 0 0 594.961 71.895 A 7.518 7.518 0 0 1 593.789 71.719 L 593.203 71.602 A 34.133 34.133 0 0 0 587.695 62.695 Q 584.648 59.297 581.66 57.363 A 21.832 21.832 0 0 0 576.094 54.668 A 59.693 59.693 0 0 0 571.875 53.555 Q 570.117 53.555 567.715 53.789 Q 565.313 54.023 562.734 54.609 A 39.582 39.582 0 0 0 557.52 56.191 A 21.998 21.998 0 0 0 552.832 58.594 Q 550.781 60 549.551 61.934 Q 548.32 63.867 548.32 66.445 A 6.049 6.049 0 0 0 550.547 71.191 A 18.184 18.184 0 0 0 555.938 74.355 A 29.08 29.08 0 0 0 562.383 76.055 A 39.149 39.149 0 0 0 567.656 76.523 A 58.328 58.328 0 0 0 574.102 76.172 A 161.485 161.485 0 0 0 580.371 75.352 A 177.677 177.677 0 0 1 586.523 74.531 A 53.12 53.12 0 0 1 592.617 74.18 L 593.438 74.18 Q 594.023 74.18 594.668 74.238 Q 595.313 74.297 595.84 74.297 L 596.602 74.297 A 1.432 1.432 0 0 1 597.656 75.352 A 8.54 8.54 0 0 1 597.773 76.758 A 2.275 2.275 0 0 1 596.309 78.281 A 24.539 24.539 0 0 1 592.5 79.922 Q 590.156 80.742 587.285 81.621 A 72.843 72.843 0 0 1 581.777 83.086 A 122.784 122.784 0 0 1 576.855 84.082 Q 574.57 84.492 573.633 84.492 A 70.931 70.931 0 0 1 563.203 83.672 A 35.622 35.622 0 0 1 553.125 80.684 Q 548.555 78.516 545.566 74.648 A 15.824 15.824 0 0 1 542.578 64.688 A 14.587 14.587 0 0 1 543.75 60.117 Q 544.805 57.539 547.031 55.078 A 22.509 22.509 0 0 1 552.656 50.684 Q 556.055 48.75 560.684 47.93 A 30.726 30.726 0 0 1 566.042 47.488 A 44.05 44.05 0 0 1 571.23 47.813 Q 577.148 48.516 584.414 51.328 L 584.414 50.156 Z M 124.219 77.109 L 145.195 75.703 Q 143.32 78.281 140.449 79.922 A 30.239 30.239 0 0 1 134.355 82.559 Q 131.133 83.555 127.969 84.023 A 40.868 40.868 0 0 1 121.992 84.492 A 36.292 36.292 0 0 1 109.219 82.266 A 33.296 33.296 0 0 1 98.672 75.996 Q 94.102 71.953 91.465 66.152 A 31.232 31.232 0 0 1 88.828 53.086 Q 88.828 46.992 90.645 41.426 A 29.901 29.901 0 0 1 95.918 31.641 A 25.871 25.871 0 0 1 104.355 24.902 A 25.242 25.242 0 0 1 115.898 22.383 Q 119.766 22.852 122.637 24.492 A 15.287 15.287 0 0 1 127.324 28.535 Q 129.141 30.938 129.961 34.102 Q 130.664 37.148 130.664 40.664 A 12.676 12.676 0 0 1 128.203 48.281 Q 125.742 51.68 121.992 53.965 A 32.518 32.518 0 0 1 113.906 57.48 Q 109.57 58.711 105.82 58.711 L 102.949 58.711 A 7.047 7.047 0 0 1 100.313 58.242 A 4.266 4.266 0 0 1 98.438 56.836 Q 97.734 55.898 97.734 54.023 A 2.525 2.525 0 0 1 97.91 53.027 A 1.288 1.288 0 0 1 98.906 52.441 Q 99.727 52.266 101.367 52.383 Q 103.008 52.617 105.82 53.086 A 15.486 15.486 0 0 0 110.566 51.973 A 44.869 44.869 0 0 0 116.895 49.102 A 25.188 25.188 0 0 0 122.461 45.059 A 6.481 6.481 0 0 0 124.805 40.547 A 14.551 14.551 0 0 0 124.043 35.918 Q 123.281 33.633 121.758 31.875 A 11.881 11.881 0 0 0 118.184 29.063 Q 116.133 28.008 113.555 28.242 A 18.182 18.182 0 0 0 106.113 30.469 A 18.92 18.92 0 0 0 100.43 35.332 A 23.251 23.251 0 0 0 96.797 41.953 A 22.608 22.608 0 0 0 95.508 49.57 A 158.54 158.54 0 0 0 95.625 55.664 A 27.95 27.95 0 0 0 96.504 61.641 A 19.897 19.897 0 0 0 98.965 67.266 A 15.52 15.52 0 0 0 103.887 72.012 Q 107.109 74.063 112.031 75.41 A 57.498 57.498 0 0 0 124.219 77.109 Z M 466.406 2.813 L 466.406 2.344 A 1.122 1.122 0 0 1 466.992 1.465 A 8.717 8.717 0 0 1 468.34 0.703 Q 469.102 0.352 469.863 0.176 A 5.75 5.75 0 0 1 471.094 0 A 261.491 261.491 0 0 1 474.668 9.902 A 153.022 153.022 0 0 1 476.836 16.875 Q 477.656 19.805 478.008 21.797 A 77.797 77.797 0 0 1 478.594 25.664 A 59.223 59.223 0 0 1 478.945 29.531 Q 479.063 31.523 479.414 34.336 Q 485.508 30.586 490.488 30.234 A 22.525 22.525 0 0 1 492.074 30.177 A 16.874 16.874 0 0 1 499.336 31.699 A 18.226 18.226 0 0 1 506.074 37.266 Q 508.945 41.016 510.82 45.703 Q 512.695 50.391 513.691 55.664 A 80.849 80.849 0 0 1 514.98 65.859 A 57.558 57.558 0 0 1 515.085 69.278 A 45.073 45.073 0 0 1 514.746 74.941 A 26.244 26.244 0 0 1 513.164 81.621 A 4.376 4.376 0 0 1 510.352 84.551 A 2.146 2.146 0 0 1 509.862 84.607 A 4.849 4.849 0 0 1 506.484 82.383 Q 506.719 79.336 506.953 76.055 A 369.661 369.661 0 0 0 507.363 69.492 Q 507.539 66.211 507.598 63.047 Q 507.656 59.883 507.656 57.305 A 23.98 23.98 0 0 0 506.602 50.156 Q 505.547 46.758 503.555 44.238 A 14.248 14.248 0 0 0 498.574 40.254 Q 495.586 38.789 491.484 38.789 Q 489.844 38.789 488.672 39.023 Q 487.5 39.258 486.328 39.785 A 27.933 27.933 0 0 0 483.75 41.133 A 282.231 282.231 0 0 0 480.469 43.359 Q 480.469 43.594 480.41 44.238 A 14.282 14.282 0 0 0 480.352 45 Q 480.352 47.578 480.879 51.855 A 2770.141 2770.141 0 0 0 481.992 60.762 Q 482.578 65.391 483.164 69.727 A 54.867 54.867 0 0 1 483.75 76.758 L 483.75 77.695 Q 483.75 78.398 483.691 79.219 Q 483.633 80.039 483.633 80.742 L 483.633 81.797 A 3.569 3.569 0 0 1 481.934 83.848 Q 480.938 84.258 479.531 84.258 A 1.589 1.589 0 0 1 479.27 84.28 A 2.248 2.248 0 0 1 477.422 82.266 A 31.301 31.301 0 0 1 476.367 75.82 Q 476.016 71.602 475.723 65.625 A 536.61 536.61 0 0 0 474.902 52.5 A 306.971 306.971 0 0 0 473.379 37.324 Q 472.383 29.297 470.508 20.859 Q 469.57 17.578 469.043 15.293 A 165.416 165.416 0 0 0 468.047 11.191 Q 467.578 9.375 467.227 7.441 A 626.199 626.199 0 0 1 466.406 2.813 Z M 211.289 59.063 L 195.82 58.594 Q 195.352 58.594 195.059 58.242 A 2.039 2.039 0 0 1 194.648 57.363 A 4.6 4.6 0 0 1 194.531 56.367 L 194.531 55.781 Q 194.531 54.727 194.648 54.199 Q 194.766 53.672 195.234 53.438 A 4.165 4.165 0 0 1 196.406 53.086 L 198.047 53.086 Q 199.219 52.969 202.031 52.617 A 349.661 349.661 0 0 1 208.125 51.914 A 1229.873 1229.873 0 0 1 214.277 51.27 Q 217.148 50.977 218.32 50.742 A 90.107 90.107 0 0 0 221.016 46.699 A 25.702 25.702 0 0 0 222.715 43.535 Q 223.359 42.07 223.652 40.547 A 19.512 19.512 0 0 0 223.945 36.914 A 16.809 16.809 0 0 0 223.77 34.688 Q 223.594 33.398 223.066 32.168 Q 222.539 30.938 221.66 30.117 A 3.215 3.215 0 0 0 219.375 29.297 L 204.727 29.297 Q 203.438 29.297 202.324 30.234 A 15.993 15.993 0 0 0 200.332 32.227 A 16.625 16.625 0 0 1 198.516 34.102 A 2.571 2.571 0 0 1 196.875 35.039 A 5.012 5.012 0 0 1 193.594 33.984 A 3.71 3.71 0 0 1 192.305 30.938 Q 192.305 29.063 193.652 27.773 A 12.525 12.525 0 0 1 197.227 25.488 A 23.028 23.028 0 0 1 202.031 23.965 Q 204.609 23.438 207.188 23.086 Q 209.766 22.734 211.934 22.559 A 44.394 44.394 0 0 1 215.273 22.383 Q 218.555 22.383 221.426 23.32 Q 224.297 24.258 226.289 26.074 Q 228.281 27.891 229.453 30.469 Q 230.625 33.047 230.625 36.445 A 14.989 14.989 0 0 1 230.156 40.313 A 60.024 60.024 0 0 1 229.102 43.828 A 60.024 60.024 0 0 0 228.047 47.344 A 14.504 14.504 0 0 0 227.578 51.094 A 32.067 32.067 0 0 0 229.043 50.918 Q 230.391 50.742 232.031 50.684 Q 233.672 50.625 234.961 50.918 A 1.368 1.368 0 0 1 236.25 52.266 L 236.25 52.559 L 236.25 52.734 L 236.25 53.086 Q 235.898 53.672 235.02 54.727 A 4.987 4.987 0 0 1 234.023 55.781 L 221.484 56.953 A 20.86 20.86 0 0 1 218.789 60.527 A 182.078 182.078 0 0 0 215.273 64.512 A 54.734 54.734 0 0 0 212.109 68.555 A 8.635 8.635 0 0 0 210.469 72.188 A 3.253 3.253 0 0 0 210.435 72.648 A 3.14 3.14 0 0 0 211.641 75.059 A 10.426 10.426 0 0 0 217.031 76.758 Q 219.609 76.758 222.598 76.289 A 57.466 57.466 0 0 0 228.633 75 Q 231.68 74.18 234.492 73.125 A 44.069 44.069 0 0 0 239.531 70.898 A 7.078 7.078 0 0 1 241.172 72.656 Q 241.875 73.711 241.875 74.883 A 3.95 3.95 0 0 1 240.234 77.988 A 16.414 16.414 0 0 1 236.016 80.391 Q 233.438 81.445 230.273 82.266 A 61.632 61.632 0 0 1 224.004 83.555 Q 220.898 84.023 218.262 84.258 Q 215.625 84.492 214.219 84.492 A 21.748 21.748 0 0 1 210.176 84.023 A 27.937 27.937 0 0 1 205.488 82.676 A 10.762 10.762 0 0 1 201.68 80.273 A 5.097 5.097 0 0 1 200.156 76.523 A 10.12 10.12 0 0 1 201.387 72.07 Q 202.617 69.609 204.434 67.207 Q 206.25 64.805 208.125 62.637 A 170.456 170.456 0 0 1 211.289 59.063 Z M 459.141 78.75 L 432.07 84.492 Q 431.836 84.492 431.074 84.551 Q 430.313 84.609 429.844 84.609 Q 425.977 84.609 422.871 83.027 A 20.268 20.268 0 0 1 417.363 78.926 A 24.565 24.565 0 0 1 413.262 73.066 A 43.365 43.365 0 0 1 410.449 66.094 A 43.973 43.973 0 0 1 408.867 58.828 A 53.288 53.288 0 0 1 408.398 52.031 A 34.145 34.145 0 0 1 409.922 42.246 Q 411.445 37.148 414.141 32.109 Q 416.836 27.07 420.527 22.5 A 51.403 51.403 0 0 1 428.672 14.414 A 41.475 41.475 0 0 1 438.047 8.789 A 26.063 26.063 0 0 1 447.891 6.797 A 4.732 4.732 0 0 1 452.109 8.906 A 8.267 8.267 0 0 1 453.516 13.594 Q 453.516 15.117 452.93 17.109 Q 452.344 19.102 451.172 21.035 A 14.939 14.939 0 0 1 448.535 24.316 A 4.662 4.662 0 0 1 445.313 25.664 Q 445.313 24.492 445.664 23.379 Q 446.016 22.266 446.602 21.27 Q 447.188 20.273 447.539 19.219 A 7.381 7.381 0 0 0 447.891 16.875 Q 447.891 15.234 446.543 14.941 Q 445.195 14.648 443.906 14.648 L 442.969 14.648 L 442.266 14.648 A 54.794 54.794 0 0 0 431.719 20.215 Q 426.563 23.672 422.578 28.184 A 37.127 37.127 0 0 0 416.25 38.145 Q 413.906 43.594 413.906 49.805 A 55.406 55.406 0 0 0 414.668 58.535 A 33.338 33.338 0 0 0 417.305 67.324 Q 419.18 71.367 422.402 74.063 A 12.088 12.088 0 0 0 430.43 76.758 A 41.434 41.434 0 0 0 438.34 75.996 Q 442.266 75.234 446.191 74.355 A 186.159 186.159 0 0 1 454.043 72.773 Q 457.969 72.07 461.953 72.07 Q 462.891 72.07 463.828 72.305 Q 464.766 72.539 464.766 73.711 Q 464.766 74.297 464.063 75.176 A 10.449 10.449 0 0 1 462.305 76.875 Q 461.25 77.695 460.313 78.164 L 459.141 78.75 Z M 310.137 37.441 A 1.276 1.276 0 0 0 309.375 38.789 L 309.375 45.879 A 167.935 167.935 0 0 0 309.668 55.488 A 121.176 121.176 0 0 0 310.723 65.859 Q 311.484 71.133 312.832 75.352 A 20.571 20.571 0 0 0 316.406 82.266 Q 318.633 84.961 321.914 84.961 Q 321.914 81.211 321.211 77.461 A 157.193 157.193 0 0 0 319.629 70.02 A 165.86 165.86 0 0 1 318.047 62.637 Q 317.344 58.945 317.344 55.195 A 17.462 17.462 0 0 1 318.691 48.281 A 15.956 15.956 0 0 1 322.383 42.891 A 15.93 15.93 0 0 1 327.891 39.492 Q 331.055 38.32 334.688 38.32 Q 338.555 38.32 341.953 41.836 A 28.412 28.412 0 0 1 347.695 51.328 A 59.737 59.737 0 0 1 351.094 65.215 A 61.922 61.922 0 0 1 351.621 73.403 A 75.344 75.344 0 0 1 351.094 82.148 A 0.76 0.76 0 0 0 351.504 82.852 Q 351.914 83.086 352.5 83.262 Q 353.086 83.438 353.672 83.496 A 9.659 9.659 0 0 0 354.492 83.555 A 2.721 2.721 0 0 0 356.836 81.973 Q 357.773 80.391 358.184 78.281 A 39.101 39.101 0 0 0 358.77 74.063 A 41.722 41.722 0 0 0 358.945 70.898 A 52.665 52.665 0 0 0 358.359 63.691 Q 357.773 59.531 356.484 55.137 A 69.023 69.023 0 0 0 353.32 46.523 A 36.63 36.63 0 0 0 348.809 38.906 A 22.427 22.427 0 0 0 342.832 33.457 A 13.73 13.73 0 0 0 335.508 31.406 A 15.956 15.956 0 0 0 329.355 32.695 Q 326.25 33.984 323.496 35.508 Q 320.742 37.031 318.398 38.32 A 8.671 8.671 0 0 1 314.414 39.609 Q 313.828 39.609 313.594 39.199 A 3.448 3.448 0 0 1 313.242 38.32 Q 313.125 37.852 312.832 37.5 A 1.233 1.233 0 0 0 311.836 37.148 Q 310.898 37.148 310.137 37.441 Z M 605.215 37.441 A 1.276 1.276 0 0 0 604.453 38.789 L 604.453 45.879 A 167.935 167.935 0 0 0 604.746 55.488 A 121.176 121.176 0 0 0 605.801 65.859 Q 606.563 71.133 607.91 75.352 A 20.571 20.571 0 0 0 611.484 82.266 Q 613.711 84.961 616.992 84.961 Q 616.992 81.211 616.289 77.461 A 157.193 157.193 0 0 0 614.707 70.02 A 165.86 165.86 0 0 1 613.125 62.637 Q 612.422 58.945 612.422 55.195 A 17.462 17.462 0 0 1 613.77 48.281 A 15.956 15.956 0 0 1 617.461 42.891 A 15.93 15.93 0 0 1 622.969 39.492 Q 626.133 38.32 629.766 38.32 Q 633.633 38.32 637.031 41.836 A 28.412 28.412 0 0 1 642.773 51.328 A 59.737 59.737 0 0 1 646.172 65.215 A 61.922 61.922 0 0 1 646.699 73.403 A 75.344 75.344 0 0 1 646.172 82.148 A 0.76 0.76 0 0 0 646.582 82.852 Q 646.992 83.086 647.578 83.262 Q 648.164 83.438 648.75 83.496 A 9.659 9.659 0 0 0 649.57 83.555 A 2.721 2.721 0 0 0 651.914 81.973 Q 652.852 80.391 653.262 78.281 A 39.101 39.101 0 0 0 653.848 74.063 A 41.722 41.722 0 0 0 654.023 70.898 A 52.665 52.665 0 0 0 653.438 63.691 Q 652.852 59.531 651.563 55.137 A 69.023 69.023 0 0 0 648.398 46.523 A 36.63 36.63 0 0 0 643.887 38.906 A 22.427 22.427 0 0 0 637.91 33.457 A 13.73 13.73 0 0 0 630.586 31.406 A 15.956 15.956 0 0 0 624.434 32.695 Q 621.328 33.984 618.574 35.508 Q 615.82 37.031 613.477 38.32 A 8.671 8.671 0 0 1 609.492 39.609 Q 608.906 39.609 608.672 39.199 A 3.448 3.448 0 0 1 608.32 38.32 Q 608.203 37.852 607.91 37.5 A 1.233 1.233 0 0 0 606.914 37.148 Q 605.977 37.148 605.215 37.441 Z M 151.875 35.039 L 152.109 35.039 A 0.09 0.09 0 0 0 152.227 34.98 Q 152.227 34.922 152.344 34.922 A 0.09 0.09 0 0 1 152.461 34.98 Q 152.461 35.039 152.695 35.039 L 152.93 35.039 Q 153.164 35.156 154.102 35.508 A 3.848 3.848 0 0 1 155.273 36.094 A 47.148 47.148 0 0 0 159.609 34.395 Q 161.836 33.398 164.121 32.52 A 39.722 39.722 0 0 1 168.75 31.055 A 18.809 18.809 0 0 1 173.32 30.469 A 30.715 30.715 0 0 1 176.191 30.586 A 17.97 17.97 0 0 1 178.652 30.996 Q 179.883 31.289 181.289 31.699 Q 182.695 32.109 184.57 32.695 A 37.088 37.088 0 0 1 186.27 34.043 Q 187.031 34.688 187.676 35.508 A 5.959 5.959 0 0 1 188.672 37.5 A 10.871 10.871 0 0 1 189.023 40.547 A 9.799 9.799 0 0 1 187.809 40.619 A 15.636 15.636 0 0 1 184.629 40.254 A 65.575 65.575 0 0 1 179.355 38.906 Q 176.602 38.086 173.672 37.5 A 24.055 24.055 0 0 0 168.952 37.012 A 20.832 20.832 0 0 0 168.047 37.031 A 10.541 10.541 0 0 0 163.008 38.555 Q 160.547 39.727 158.672 42.773 A 24.904 24.904 0 0 0 157.954 48.631 A 23.033 23.033 0 0 0 157.969 49.453 A 34.422 34.422 0 0 0 158.789 55.84 Q 159.492 58.945 160.605 62.051 Q 161.719 65.156 162.715 68.262 Q 163.711 71.367 164.531 74.414 A 33.298 33.298 0 0 1 165.586 80.625 A 3.825 3.825 0 0 1 164.297 83.145 A 3.958 3.958 0 0 1 161.367 84.492 Q 158.789 79.805 156.914 74.297 A 112.514 112.514 0 0 1 153.75 63.164 A 133.793 133.793 0 0 1 151.699 52.207 Q 150.938 46.875 150.703 42.539 Q 150.703 41.719 150.586 40.723 Q 150.469 39.727 150.527 38.672 A 8.175 8.175 0 0 1 150.879 36.68 Q 151.172 35.742 151.875 35.039 Z M 526.758 43.945 L 526.758 42.188 Q 526.758 40.898 526.816 39.492 A 64.831 64.831 0 0 0 526.875 36.797 L 526.875 35.039 A 8.104 8.104 0 0 1 526.803 34.007 A 2.134 2.134 0 0 1 528.984 31.406 A 3.338 3.338 0 0 1 530.977 31.992 Q 531.797 32.578 532.5 33.75 Q 532.148 39.844 533.027 45.527 Q 533.906 51.211 535.02 56.777 Q 536.133 62.344 537.129 67.969 A 67.113 67.113 0 0 1 538.125 79.688 Q 538.125 81.328 537.129 82.969 Q 536.133 84.609 534.141 84.609 A 3.375 3.375 0 0 1 531.504 81.973 A 35.743 35.743 0 0 1 529.57 75.293 Q 528.75 71.25 528.164 66.328 A 176.88 176.88 0 0 1 527.285 56.895 A 255.077 255.077 0 0 1 526.875 48.809 A 180.003 180.003 0 0 1 526.758 43.945 Z M 665.156 63.516 A 12.7 12.7 0 0 0 665.801 67.559 Q 666.445 69.492 667.676 71.016 A 8.771 8.771 0 0 0 670.723 73.418 A 9.16 9.16 0 0 0 674.766 74.297 A 14.909 14.909 0 0 0 683.848 71.953 Q 686.953 69.609 688.125 66.094 A 23.566 23.566 0 0 0 689.297 58.594 A 174.502 174.502 0 0 0 688.945 51.211 Q 688.945 49.57 688.711 47.93 A 9.892 9.892 0 0 0 687.773 44.883 A 5.654 5.654 0 0 0 685.84 42.656 A 5.485 5.485 0 0 0 682.734 41.836 A 12.71 12.71 0 0 0 675.586 44.004 Q 672.305 46.172 670.02 49.395 A 27.112 27.112 0 0 0 666.445 56.426 A 22.205 22.205 0 0 0 665.156 63.516 Z M 527.344 20.039 L 526.758 20.039 Q 525 20.039 523.828 19.805 A 4.115 4.115 0 0 1 522.012 19.043 Q 521.367 18.516 521.074 17.461 A 11.457 11.457 0 0 1 520.781 14.531 A 1.831 1.831 0 0 1 521.602 12.715 Q 522.422 12.305 523.711 12.305 A 1.138 1.138 0 0 1 523.872 12.294 A 3.538 3.538 0 0 1 525.879 13.301 A 10.434 10.434 0 0 1 528.105 15.82 Q 528.984 17.227 529.102 18.398 A 1.944 1.944 0 0 1 529.108 18.56 A 1.594 1.594 0 0 1 527.344 20.039 Z" vector-effect="non-scaling-stroke"/></g></svg>