<svg width="682.91" height="97.519" viewBox="0 0 682.91 97.519" xmlns="http://www.w3.org/2000/svg"><g id="svgGroup" stroke-linecap="round" fill-rule="evenodd" font-size="9pt" stroke="#000" stroke-width="0.25mm" fill="#ffffff" style="stroke:#ffffff;stroke-width:0.25mm;fill:#ffffff"><path d="M 440.82 76.172 L 420.508 76.172 L 420.508 72.656 L 428.467 72.314 L 428.467 3.857 L 420.508 3.516 L 420.508 0 L 432.861 0 L 432.861 33.447 A 19.149 19.149 0 0 1 439.893 25.269 Q 444.434 22.363 450.781 22.363 A 15.655 15.655 0 0 1 463.452 27.539 A 21.216 21.216 0 0 1 467.642 39.54 A 47.694 47.694 0 0 1 467.822 43.799 L 467.822 72.314 L 475.781 72.656 L 475.781 76.172 L 455.469 76.172 L 455.469 72.656 L 463.428 72.314 L 463.428 43.701 A 24.966 24.966 0 0 0 461.409 32.628 A 10.532 10.532 0 0 0 459.839 30.298 A 12.461 12.461 0 0 0 450.098 26.318 Q 442.676 26.318 438.477 30.591 A 21.669 21.669 0 0 0 432.861 41.65 L 432.861 72.314 L 440.82 72.656 L 440.82 76.172 Z M 288.086 76.172 L 267.773 76.172 L 267.773 72.656 L 275.732 72.314 L 275.732 27.197 L 267.773 26.855 L 267.773 23.34 L 279.59 23.34 L 280.029 33.447 A 19.067 19.067 0 0 1 286.914 25.269 A 19.198 19.198 0 0 1 297.656 22.363 A 15.929 15.929 0 0 1 310.693 27.686 A 21.916 21.916 0 0 1 314.877 39.747 A 50.098 50.098 0 0 1 315.088 44.482 L 315.088 72.314 L 323.047 72.656 L 323.047 76.172 L 302.734 76.172 L 302.734 72.656 L 310.693 72.314 L 310.693 44.482 A 27.846 27.846 0 0 0 308.824 33.213 A 11.023 11.023 0 0 0 307.056 30.42 A 12.779 12.779 0 0 0 296.973 26.318 A 14.965 14.965 0 0 0 285.498 30.64 A 21.974 21.974 0 0 0 280.127 41.797 L 280.127 72.314 L 288.086 72.656 L 288.086 76.172 Z M 589.893 76.172 L 569.58 76.172 L 569.58 72.656 L 577.539 72.314 L 577.539 27.197 L 569.58 26.855 L 569.58 23.34 L 581.396 23.34 L 581.836 33.447 A 19.067 19.067 0 0 1 588.721 25.269 A 19.198 19.198 0 0 1 599.463 22.363 A 15.929 15.929 0 0 1 612.5 27.686 A 21.916 21.916 0 0 1 616.683 39.747 A 50.098 50.098 0 0 1 616.895 44.482 L 616.895 72.314 L 624.854 72.656 L 624.854 76.172 L 604.541 76.172 L 604.541 72.656 L 612.5 72.314 L 612.5 44.482 A 27.846 27.846 0 0 0 610.631 33.213 A 11.023 11.023 0 0 0 608.862 30.42 A 12.779 12.779 0 0 0 598.779 26.318 A 14.965 14.965 0 0 0 587.305 30.64 A 21.974 21.974 0 0 0 581.934 41.797 L 581.934 72.314 L 589.893 72.656 L 589.893 76.172 Z M 358.252 41.113 L 358.252 40.186 Q 358.252 29.492 362.134 21.362 A 30.551 30.551 0 0 1 373.022 8.643 A 29.302 29.302 0 0 1 389.453 4.053 A 34.776 34.776 0 0 1 402.051 6.055 Q 407.178 8.057 411.377 11.719 L 411.377 25 L 407.471 25 L 407.178 13.623 A 29.61 29.61 0 0 0 402.344 10.571 A 23.28 23.28 0 0 0 396.753 8.667 A 35.761 35.761 0 0 0 389.404 8.008 Q 381.396 8.008 375.366 12.061 A 26.601 26.601 0 0 0 366.016 23.34 A 39.739 39.739 0 0 0 362.695 40.088 L 362.695 41.113 A 40.285 40.285 0 0 0 366.016 58.032 A 25.549 25.549 0 0 0 375.586 69.263 A 27.417 27.417 0 0 0 390.625 73.242 A 36.144 36.144 0 0 0 400.049 72.021 A 25.575 25.575 0 0 0 407.715 68.701 L 408.008 57.617 L 411.914 57.617 L 411.914 71.338 A 33.803 33.803 0 0 1 402.051 75.732 A 43.614 43.614 0 0 1 390.625 77.197 A 32.315 32.315 0 0 1 372.949 72.607 A 29.038 29.038 0 0 1 361.987 59.863 A 44.576 44.576 0 0 1 358.252 41.113 Z M 203.857 76.172 L 162.354 76.172 L 162.354 72.852 L 195.557 27.197 L 166.65 27.197 L 166.357 38.135 L 162.549 38.135 L 162.549 23.34 L 201.221 23.34 L 201.221 26.758 L 167.92 72.363 L 199.756 72.363 L 200.098 61.377 L 203.857 61.377 L 203.857 76.172 Z M 640.088 94.238 L 641.26 90.43 A 37.791 37.791 0 0 0 648.022 92.749 A 32.232 32.232 0 0 0 655.469 93.555 A 14.971 14.971 0 0 0 667.529 88.745 A 19.786 19.786 0 0 0 671.631 75.488 L 671.631 68.506 A 18.724 18.724 0 0 1 664.673 74.878 Q 660.352 77.197 654.541 77.197 Q 648.242 77.197 643.75 73.975 Q 639.258 70.752 636.841 64.868 Q 634.424 58.984 634.424 50.977 L 634.424 49.951 Q 634.424 41.553 636.841 35.352 Q 639.258 29.15 643.774 25.757 Q 648.291 22.363 654.639 22.363 A 19.256 19.256 0 0 1 664.868 25 A 19.699 19.699 0 0 1 671.826 32.324 L 672.314 23.34 L 676.074 23.34 L 676.074 75.488 A 25.929 25.929 0 0 1 673.608 87.207 A 17.904 17.904 0 0 1 666.577 94.824 A 21.352 21.352 0 0 1 655.566 97.51 Q 651.758 97.51 647.51 96.631 A 32.588 32.588 0 0 1 640.088 94.238 Z M 236.865 46.289 L 248.34 46.289 L 248.34 39.941 Q 248.34 33.838 244.751 30.029 Q 241.162 26.221 233.74 26.221 A 18.536 18.536 0 0 0 226.416 27.612 A 20.922 20.922 0 0 0 220.752 31.104 L 220.508 39.404 L 216.65 39.404 L 216.65 28.857 A 26.195 26.195 0 0 1 224.219 24.097 A 25.036 25.036 0 0 1 233.838 22.363 A 19.364 19.364 0 0 1 247.881 27.057 A 14.123 14.123 0 0 1 247.9 27.075 A 17.267 17.267 0 0 1 252.734 40.039 L 252.734 65.527 A 42.031 42.031 0 0 0 252.881 69.067 A 40.596 40.596 0 0 0 253.32 72.51 L 260.107 72.656 L 260.107 76.172 L 249.414 76.172 A 82.336 82.336 0 0 1 248.608 71.24 A 42.002 42.002 0 0 1 248.34 67.09 A 22.875 22.875 0 0 1 240.479 74.365 A 21.854 21.854 0 0 1 229.395 77.197 A 15.944 15.944 0 0 1 217.92 73.193 A 14.023 14.023 0 0 1 213.721 62.549 A 13.497 13.497 0 0 1 216.553 54.053 A 18.379 18.379 0 0 1 224.585 48.34 A 33.4 33.4 0 0 1 236.865 46.289 Z M 538.672 46.289 L 550.146 46.289 L 550.146 39.941 Q 550.146 33.838 546.558 30.029 Q 542.969 26.221 535.547 26.221 A 18.536 18.536 0 0 0 528.223 27.612 A 20.922 20.922 0 0 0 522.559 31.104 L 522.314 39.404 L 518.457 39.404 L 518.457 28.857 A 26.195 26.195 0 0 1 526.025 24.097 A 25.036 25.036 0 0 1 535.645 22.363 A 19.364 19.364 0 0 1 549.688 27.057 A 14.123 14.123 0 0 1 549.707 27.075 A 17.267 17.267 0 0 1 554.541 40.039 L 554.541 65.527 A 42.031 42.031 0 0 0 554.687 69.067 A 40.596 40.596 0 0 0 555.127 72.51 L 561.914 72.656 L 561.914 76.172 L 551.221 76.172 A 82.336 82.336 0 0 1 550.415 71.24 A 42.002 42.002 0 0 1 550.146 67.09 A 22.875 22.875 0 0 1 542.285 74.365 A 21.854 21.854 0 0 1 531.201 77.197 A 15.944 15.944 0 0 1 519.727 73.193 A 14.023 14.023 0 0 1 515.527 62.549 A 13.497 13.497 0 0 1 518.359 54.053 A 18.379 18.379 0 0 1 526.392 48.34 A 33.4 33.4 0 0 1 538.672 46.289 Z M 27.49 76.172 L 0 76.172 L 0 72.656 L 7.959 72.314 L 7.959 8.936 L 0 8.594 L 0 5.078 L 7.959 5.078 L 27.393 5.078 Q 36.279 5.078 43.14 9.595 Q 50 14.111 53.931 21.997 A 40.028 40.028 0 0 1 57.861 40.088 L 57.861 41.162 Q 57.861 51.318 53.979 59.204 A 30.996 30.996 0 0 1 43.262 71.631 A 27.842 27.842 0 0 1 27.49 76.172 Z M 68.652 51.514 L 68.652 48.633 Q 68.652 41.064 71.533 35.132 A 23.683 23.683 0 0 1 79.346 25.781 A 18.927 18.927 0 0 1 90.381 22.363 Q 96.68 22.363 101.221 25.098 Q 105.762 27.832 108.228 32.788 A 25.967 25.967 0 0 1 110.693 44.482 L 110.693 49.023 L 73.145 49.023 L 73.096 51.904 Q 73.145 58.057 75.439 62.891 A 18.889 18.889 0 0 0 81.812 70.532 A 16.25 16.25 0 0 0 91.26 73.34 Q 96.24 73.34 100.073 71.68 Q 103.906 70.02 106.836 67.188 L 108.838 70.313 A 25.641 25.641 0 0 1 101.416 75.269 A 24.636 24.636 0 0 1 91.26 77.197 A 21.193 21.193 0 0 1 79.565 73.926 A 22.475 22.475 0 0 1 71.558 64.868 A 29.379 29.379 0 0 1 68.652 51.514 Z M 140.771 76.172 L 120.459 76.172 L 120.459 72.656 L 128.418 72.314 L 128.418 27.197 L 120.459 26.855 L 120.459 23.34 L 132.178 23.34 L 132.764 31.885 L 132.764 33.496 A 18.552 18.552 0 0 1 139.062 25.293 A 16.605 16.605 0 0 1 148.975 22.363 Q 150.195 22.363 151.66 22.583 Q 153.125 22.803 153.809 22.998 L 153.271 27.002 L 148.291 26.66 A 19.309 19.309 0 0 0 147.989 26.658 A 13.452 13.452 0 0 0 138.086 30.493 A 19.776 19.776 0 0 0 132.813 40.82 L 132.813 72.314 L 140.771 72.656 L 140.771 76.172 Z M 12.354 8.936 L 12.354 72.314 L 27.393 72.314 A 23.028 23.028 0 0 0 40.894 68.213 A 27.769 27.769 0 0 0 50.122 57.056 Q 53.467 50 53.467 41.162 L 53.467 39.99 Q 53.467 31.104 50.122 24.097 A 27.652 27.652 0 0 0 40.894 13.013 A 23.125 23.125 0 0 0 27.393 8.936 L 12.354 8.936 Z M 504.834 76.172 L 484.521 76.172 L 484.521 72.656 L 492.48 72.314 L 492.48 27.197 L 484.521 26.855 L 484.521 23.34 L 496.875 23.34 L 496.875 72.314 L 504.834 72.656 L 504.834 76.172 Z M 671.631 62.451 L 671.631 38.428 A 20.533 20.533 0 0 0 665.894 29.761 A 15.591 15.591 0 0 0 655.176 26.318 Q 649.854 26.318 646.216 29.321 Q 642.578 32.324 640.723 37.646 Q 638.867 42.969 638.867 49.951 L 638.867 50.977 A 29.656 29.656 0 0 0 642.323 66.194 A 18.928 18.928 0 0 0 642.969 67.212 Q 647.07 73.242 655.078 73.242 Q 661.426 73.242 665.552 70.337 A 16.96 16.96 0 0 0 671.631 62.451 Z M 248.34 61.768 L 248.34 49.951 L 236.914 49.951 A 23.127 23.127 0 0 0 223.193 53.589 Q 218.115 57.227 218.115 62.744 Q 218.115 67.285 221.313 70.264 A 11.863 11.863 0 0 0 229.736 73.242 A 20.994 20.994 0 0 0 240.649 70.142 A 19.081 19.081 0 0 0 248.34 61.768 Z M 550.146 61.768 L 550.146 49.951 L 538.721 49.951 A 23.127 23.127 0 0 0 525 53.589 Q 519.922 57.227 519.922 62.744 Q 519.922 67.285 523.12 70.264 A 11.863 11.863 0 0 0 531.543 73.242 A 20.994 20.994 0 0 0 542.456 70.142 A 19.081 19.081 0 0 0 550.146 61.768 Z M 73.486 44.873 L 73.633 45.117 L 106.299 45.117 L 106.299 43.604 A 19.967 19.967 0 0 0 104.37 34.692 Q 102.441 30.762 98.877 28.491 A 15.478 15.478 0 0 0 90.381 26.221 A 14.278 14.278 0 0 0 82.227 28.687 Q 78.564 31.152 76.27 35.352 A 24.248 24.248 0 0 0 73.486 44.873 Z M 496.875 7.715 L 491.699 7.715 L 491.699 0 L 496.875 0 L 496.875 7.715 Z M 682.91 26.855 L 674.951 27.295 L 673.73 23.34 L 682.91 23.34 L 682.91 26.855 Z" vector-effect="non-scaling-stroke"/></g></svg>